<svg width="468" height="585" viewBox="0 0 468 585" fill="none" xmlns="http://www.w3.org/2000/svg">
<g clip-path="url(#clip0_14_21)">
<path d="M-50.9551 439.326H515.284V705H-50.9551V439.326Z" fill="white"/>
<path d="M546 -76H-79V705H-24.2457C-24.2457 705 -12.9777 569.827 9.55836 528.524C43.6779 467.129 77.7973 467.701 114.732 468.322C118.457 468.384 122.21 468.447 125.995 468.447C152.287 464.692 178.579 457.183 178.579 434.654C178.579 421.247 170.761 416.633 160.11 410.346C149.879 404.308 137.035 396.727 125.995 378.332C125.995 378.332 24.5824 104.231 234.919 104.231C445.255 104.231 343.843 378.332 343.843 374.577C331.956 396.363 317.979 404.568 307.424 410.764C297.968 416.315 291.259 420.254 291.259 430.899C291.259 453.428 317.551 460.937 343.843 464.692C350.151 465.266 356.372 465.489 362.518 465.709C396.628 466.933 428.454 468.075 460.28 528.524C479.06 569.827 490.328 705 490.328 705H546V-76Z" fill="white"/>
</g>
<defs>
<clipPath id="clip0_14_21">
<rect width="468" height="585" fill="white"/>
</clipPath>
</defs>
</svg>
